<svg width="1440" height="1024" viewBox="0 0 1440 1024" fill="none" xmlns="http://www.w3.org/2000/svg">
<g clip-path="url(#clip0_1_2)">
<path d="M471.5 27.2525C211.9 -13.9475 47 130.419 -3 207.752V1023.75H1440V27.2525C1392.83 70.2524 1243.1 157.952 1021.5 164.752C744.5 173.252 796 78.7525 471.5 27.2525Z" fill="url(#paint0_linear_1_2)"/>
<ellipse cx="-0.5" cy="720.5" rx="179.5" ry="185.5" fill="url(#paint1_linear_1_2)"/>
<path d="M1200.8 286.501C1209.22 273.241 1227.63 270.936 1239.06 281.712L1470.55 500.029C1485.93 514.535 1477.48 540.397 1456.5 543.023L1054.49 593.348C1033.51 595.974 1018.94 572.993 1030.27 555.143L1200.8 286.501Z" fill="url(#paint2_linear_1_2)" fill-opacity="0.3"/>
</g>
<defs>
<linearGradient id="paint0_linear_1_2" x1="1460.5" y1="20" x2="-2.99996" y2="1024" gradientUnits="userSpaceOnUse">
<stop offset="0.0445078" stop-color="#4D66AB"/>
<stop offset="0.438212" stop-color="#331B7A"/>
<stop offset="0.958652" stop-color="#7A074C"/>
<stop offset="0.987997" stop-color="#4D66AB"/>
</linearGradient>
<linearGradient id="paint1_linear_1_2" x1="24.5" y1="608" x2="479.5" y2="477" gradientUnits="userSpaceOnUse">
<stop stop-color="#771D61" stop-opacity="0.15"/>
<stop offset="1" stop-color="#624EB1"/>
</linearGradient>
<linearGradient id="paint2_linear_1_2" x1="1044.82" y1="421.911" x2="1312.79" y2="457.03" gradientUnits="userSpaceOnUse">
<stop stop-color="#BD055D"/>
<stop offset="1" stop-color="#771D61" stop-opacity="0.15"/>
</linearGradient>
<clipPath id="clip0_1_2">
<rect width="1440" height="1024" fill="white"/>
</clipPath>
</defs>
</svg>
